<mxfile host="app.diagrams.net" modified="2022-01-19T18:58:20.920Z" agent="5.0 (Windows)" etag="GmFGvv99aW0BqWJw0tus" version="16.2.7" type="github">
  <diagram id="kgpKYQtTHZ0yAKxKKP6v" name="Page-1">
    <mxGraphModel dx="782" dy="351" grid="1" gridSize="10" guides="1" tooltips="1" connect="1" arrows="1" fold="1" page="1" pageScale="1" pageWidth="850" pageHeight="1100" math="0" shadow="0">
      <root>
        <mxCell id="0" />
        <mxCell id="1" parent="0" />
        <mxCell id="3nuBFxr9cyL0pnOWT2aG-1" value=":Swipes Ingestor" style="shape=umlLifeline;perimeter=lifelinePerimeter;container=1;collapsible=0;recursiveResize=0;rounded=0;shadow=0;strokeWidth=1;whiteSpace=wrap;fillColor=#fff2cc;strokeColor=#A30000;" parent="1" vertex="1">
          <mxGeometry x="130" y="10" width="50" height="350" as="geometry" />
        </mxCell>
        <mxCell id="3nuBFxr9cyL0pnOWT2aG-5" value=":Left Swipes Stream" style="shape=umlLifeline;perimeter=lifelinePerimeter;container=1;collapsible=0;recursiveResize=0;rounded=0;shadow=0;strokeWidth=1;whiteSpace=wrap;fillColor=#fff2cc;strokeColor=#A30000;" parent="1" vertex="1">
          <mxGeometry x="200" y="10" width="50" height="350" as="geometry" />
        </mxCell>
        <mxCell id="3nuBFxr9cyL0pnOWT2aG-8" value="2. Left swipes are added to a stream" style="verticalAlign=bottom;endArrow=block;shadow=0;strokeWidth=1;exitX=0.6;exitY=0.297;exitDx=0;exitDy=0;exitPerimeter=0;" parent="3nuBFxr9cyL0pnOWT2aG-5" source="3nuBFxr9cyL0pnOWT2aG-1" edge="1">
          <mxGeometry relative="1" as="geometry">
            <mxPoint x="-20" y="110.00000000000011" as="sourcePoint" />
            <mxPoint x="30" y="104" as="targetPoint" />
          </mxGeometry>
        </mxCell>
        <mxCell id="3nuBFxr9cyL0pnOWT2aG-9" value="7. Returns the info if Bob has also right swiped Alice" style="verticalAlign=bottom;endArrow=block;shadow=0;strokeWidth=1;exitX=0.5;exitY=0.631;exitDx=0;exitDy=0;exitPerimeter=0;" parent="1" source="y3BdYpLoxxfS6rWGd74U-7" target="y3BdYpLoxxfS6rWGd74U-6" edge="1">
          <mxGeometry relative="1" as="geometry">
            <mxPoint x="345" y="160" as="sourcePoint" />
            <mxPoint x="190" y="130" as="targetPoint" />
          </mxGeometry>
        </mxCell>
        <mxCell id="y3BdYpLoxxfS6rWGd74U-1" value="Alice" style="shape=umlActor;verticalLabelPosition=bottom;verticalAlign=top;html=1;outlineConnect=0;labelBackgroundColor=none;fontSize=14;strokeColor=#A30000;fillColor=#fff2cc;" vertex="1" parent="1">
          <mxGeometry x="70" y="10" width="30" height="40" as="geometry" />
        </mxCell>
        <mxCell id="y3BdYpLoxxfS6rWGd74U-4" style="edgeStyle=orthogonalEdgeStyle;rounded=0;orthogonalLoop=1;jettySize=auto;html=1;dashed=1;fontSize=14;startArrow=none;startFill=0;endArrow=oval;endFill=1;strokeColor=#A30000;strokeWidth=1;" edge="1" parent="1" source="y3BdYpLoxxfS6rWGd74U-2">
          <mxGeometry relative="1" as="geometry">
            <mxPoint x="35" y="360" as="targetPoint" />
          </mxGeometry>
        </mxCell>
        <mxCell id="y3BdYpLoxxfS6rWGd74U-2" value="Bob" style="shape=umlActor;verticalLabelPosition=bottom;verticalAlign=top;html=1;outlineConnect=0;labelBackgroundColor=none;fontSize=14;strokeColor=#A30000;fillColor=#fff2cc;" vertex="1" parent="1">
          <mxGeometry x="20" y="10" width="30" height="40" as="geometry" />
        </mxCell>
        <mxCell id="y3BdYpLoxxfS6rWGd74U-5" value=":Left Swipes S3" style="shape=umlLifeline;perimeter=lifelinePerimeter;container=1;collapsible=0;recursiveResize=0;rounded=0;shadow=0;strokeWidth=1;whiteSpace=wrap;fillColor=#fff2cc;strokeColor=#A30000;" vertex="1" parent="1">
          <mxGeometry x="270" y="10" width="50" height="350" as="geometry" />
        </mxCell>
        <mxCell id="y3BdYpLoxxfS6rWGd74U-6" value=":Matches Worker" style="shape=umlLifeline;perimeter=lifelinePerimeter;container=1;collapsible=0;recursiveResize=0;rounded=0;shadow=0;strokeWidth=1;whiteSpace=wrap;fillColor=#fff2cc;strokeColor=#A30000;" vertex="1" parent="1">
          <mxGeometry x="425" y="10" width="60" height="350" as="geometry" />
        </mxCell>
        <mxCell id="y3BdYpLoxxfS6rWGd74U-7" value=":Likes Cache" style="shape=umlLifeline;perimeter=lifelinePerimeter;container=1;collapsible=0;recursiveResize=0;rounded=0;shadow=0;strokeWidth=1;whiteSpace=wrap;fillColor=#fff2cc;strokeColor=#A30000;" vertex="1" parent="1">
          <mxGeometry x="510" y="10" width="50" height="350" as="geometry" />
        </mxCell>
        <mxCell id="y3BdYpLoxxfS6rWGd74U-8" value=":Matches Notification Queue" style="shape=umlLifeline;perimeter=lifelinePerimeter;container=1;collapsible=0;recursiveResize=0;rounded=0;shadow=0;strokeWidth=1;whiteSpace=wrap;fillColor=#fff2cc;strokeColor=#A30000;" vertex="1" parent="1">
          <mxGeometry x="580" y="10" width="70" height="350" as="geometry" />
        </mxCell>
        <mxCell id="y3BdYpLoxxfS6rWGd74U-9" value=":Matches Manager" style="shape=umlLifeline;perimeter=lifelinePerimeter;container=1;collapsible=0;recursiveResize=0;rounded=0;shadow=0;strokeWidth=1;whiteSpace=wrap;fillColor=#fff2cc;strokeColor=#A30000;" vertex="1" parent="1">
          <mxGeometry x="670" y="10" width="60" height="350" as="geometry" />
        </mxCell>
        <mxCell id="y3BdYpLoxxfS6rWGd74U-10" value=":Right Swipes Stream" style="shape=umlLifeline;perimeter=lifelinePerimeter;container=1;collapsible=0;recursiveResize=0;rounded=0;shadow=0;strokeWidth=1;whiteSpace=wrap;fillColor=#fff2cc;strokeColor=#A30000;" vertex="1" parent="1">
          <mxGeometry x="340" y="10" width="60" height="350" as="geometry" />
        </mxCell>
        <mxCell id="y3BdYpLoxxfS6rWGd74U-11" value=":Matches DB" style="shape=umlLifeline;perimeter=lifelinePerimeter;container=1;collapsible=0;recursiveResize=0;rounded=0;shadow=0;strokeWidth=1;whiteSpace=wrap;fillColor=#fff2cc;strokeColor=#A30000;" vertex="1" parent="1">
          <mxGeometry x="740" y="10" width="50" height="350" as="geometry" />
        </mxCell>
        <mxCell id="3nuBFxr9cyL0pnOWT2aG-3" value="1. Alice right swipes Bob" style="verticalAlign=bottom;startArrow=none;endArrow=block;startSize=8;shadow=0;strokeWidth=1;startFill=0;" parent="1" edge="1">
          <mxGeometry relative="1" as="geometry">
            <mxPoint x="80" y="90" as="sourcePoint" />
            <mxPoint x="160" y="90" as="targetPoint" />
          </mxGeometry>
        </mxCell>
        <mxCell id="y3BdYpLoxxfS6rWGd74U-14" value="3. Left swipes added in low-cost storage for data analytics" style="verticalAlign=bottom;endArrow=block;shadow=0;strokeWidth=1;exitX=0.48;exitY=0.36;exitDx=0;exitDy=0;exitPerimeter=0;" edge="1" parent="1" source="3nuBFxr9cyL0pnOWT2aG-5">
          <mxGeometry relative="1" as="geometry">
            <mxPoint x="230" y="130" as="sourcePoint" />
            <mxPoint x="295" y="136" as="targetPoint" />
          </mxGeometry>
        </mxCell>
        <mxCell id="y3BdYpLoxxfS6rWGd74U-15" value="4. Swipes Ingestor add likes to a separate stream" style="verticalAlign=bottom;endArrow=block;shadow=0;strokeWidth=1;" edge="1" parent="1">
          <mxGeometry relative="1" as="geometry">
            <mxPoint x="155" y="161" as="sourcePoint" />
            <mxPoint x="370" y="161" as="targetPoint" />
          </mxGeometry>
        </mxCell>
        <mxCell id="y3BdYpLoxxfS6rWGd74U-16" value="5. Reads that Alice has right swiped Bob from the stream" style="verticalAlign=bottom;endArrow=block;shadow=0;strokeWidth=1;" edge="1" parent="1">
          <mxGeometry relative="1" as="geometry">
            <mxPoint x="370" y="185" as="sourcePoint" />
            <mxPoint x="455" y="185" as="targetPoint" />
          </mxGeometry>
        </mxCell>
        <mxCell id="y3BdYpLoxxfS6rWGd74U-17" value="6. Queries cache to check if Bob has also right swiped Alice" style="verticalAlign=bottom;endArrow=block;shadow=0;strokeWidth=1;entryX=0.48;entryY=0.563;entryDx=0;entryDy=0;entryPerimeter=0;" edge="1" parent="1" target="y3BdYpLoxxfS6rWGd74U-7">
          <mxGeometry relative="1" as="geometry">
            <mxPoint x="457" y="207" as="sourcePoint" />
            <mxPoint x="465" y="195" as="targetPoint" />
          </mxGeometry>
        </mxCell>
        <mxCell id="y3BdYpLoxxfS6rWGd74U-18" value="8. Sends the push notification of the match" style="verticalAlign=bottom;endArrow=block;shadow=0;strokeWidth=1;" edge="1" parent="1">
          <mxGeometry relative="1" as="geometry">
            <mxPoint x="455" y="267" as="sourcePoint" />
            <mxPoint x="615" y="267" as="targetPoint" />
          </mxGeometry>
        </mxCell>
        <mxCell id="y3BdYpLoxxfS6rWGd74U-19" value="9. Persists the matches&#xa;in a data store" style="verticalAlign=bottom;endArrow=block;shadow=0;strokeWidth=1;" edge="1" parent="1">
          <mxGeometry relative="1" as="geometry">
            <mxPoint x="700" y="278" as="sourcePoint" />
            <mxPoint x="765" y="278" as="targetPoint" />
          </mxGeometry>
        </mxCell>
        <mxCell id="y3BdYpLoxxfS6rWGd74U-20" value="10. Sends match notification using Web Sockets" style="verticalAlign=bottom;endArrow=block;shadow=0;strokeWidth=1;exitX=0.533;exitY=0.791;exitDx=0;exitDy=0;exitPerimeter=0;" edge="1" parent="1" source="y3BdYpLoxxfS6rWGd74U-9">
          <mxGeometry relative="1" as="geometry">
            <mxPoint x="545" y="240.85000000000002" as="sourcePoint" />
            <mxPoint x="30" y="287" as="targetPoint" />
          </mxGeometry>
        </mxCell>
        <mxCell id="y3BdYpLoxxfS6rWGd74U-21" value="11. Sends match notification using Web Sockets" style="verticalAlign=bottom;endArrow=block;shadow=0;strokeWidth=1;exitX=0.467;exitY=0.851;exitDx=0;exitDy=0;exitPerimeter=0;" edge="1" parent="1" source="y3BdYpLoxxfS6rWGd74U-9">
          <mxGeometry relative="1" as="geometry">
            <mxPoint x="711.98" y="296.85" as="sourcePoint" />
            <mxPoint x="80" y="308" as="targetPoint" />
          </mxGeometry>
        </mxCell>
        <mxCell id="y3BdYpLoxxfS6rWGd74U-22" value="12. Adds info that Alice liked Bob in the cache" style="verticalAlign=bottom;endArrow=block;shadow=0;strokeWidth=1;entryX=0.4;entryY=0.977;entryDx=0;entryDy=0;entryPerimeter=0;" edge="1" parent="1" source="y3BdYpLoxxfS6rWGd74U-6" target="y3BdYpLoxxfS6rWGd74U-7">
          <mxGeometry relative="1" as="geometry">
            <mxPoint x="465" y="277" as="sourcePoint" />
            <mxPoint x="625" y="277" as="targetPoint" />
          </mxGeometry>
        </mxCell>
        <mxCell id="y3BdYpLoxxfS6rWGd74U-23" value="" style="rounded=0;whiteSpace=wrap;html=1;labelBackgroundColor=none;fontSize=14;strokeColor=#000000;fillColor=none;strokeWidth=3;" vertex="1" parent="1">
          <mxGeometry x="20" y="250" width="780" height="110" as="geometry" />
        </mxCell>
        <mxCell id="y3BdYpLoxxfS6rWGd74U-24" value="" style="edgeStyle=orthogonalEdgeStyle;rounded=0;orthogonalLoop=1;jettySize=auto;html=1;dashed=1;fontSize=14;startArrow=none;startFill=0;endArrow=oval;endFill=1;strokeColor=#A30000;strokeWidth=1;" edge="1" parent="1" source="y3BdYpLoxxfS6rWGd74U-1">
          <mxGeometry relative="1" as="geometry">
            <mxPoint x="85" y="360" as="targetPoint" />
            <mxPoint x="85" y="50" as="sourcePoint" />
          </mxGeometry>
        </mxCell>
        <mxCell id="y3BdYpLoxxfS6rWGd74U-25" value="" style="endArrow=none;dashed=1;html=1;rounded=0;fontSize=14;strokeColor=#000000;strokeWidth=2;exitX=0;exitY=0.75;exitDx=0;exitDy=0;entryX=1;entryY=0.75;entryDx=0;entryDy=0;" edge="1" parent="1" source="y3BdYpLoxxfS6rWGd74U-23" target="y3BdYpLoxxfS6rWGd74U-23">
          <mxGeometry width="50" height="50" relative="1" as="geometry">
            <mxPoint x="380" y="210" as="sourcePoint" />
            <mxPoint x="430" y="160" as="targetPoint" />
          </mxGeometry>
        </mxCell>
        <mxCell id="y3BdYpLoxxfS6rWGd74U-26" value="&lt;span style=&quot;background-color: rgb(204 , 204 , 204)&quot;&gt;&lt;b&gt;&lt;font style=&quot;font-size: 14px&quot;&gt;Alt [Bob has right swiped Alice]&lt;/font&gt;&lt;/b&gt;&lt;/span&gt;" style="text;html=1;strokeColor=none;fillColor=none;align=center;verticalAlign=middle;whiteSpace=wrap;rounded=0;labelBackgroundColor=none;fontSize=14;strokeWidth=1;" vertex="1" parent="1">
          <mxGeometry x="20" y="250" width="220" height="30" as="geometry" />
        </mxCell>
        <mxCell id="y3BdYpLoxxfS6rWGd74U-27" value="&lt;span style=&quot;background-color: rgb(204 , 204 , 204)&quot;&gt;&lt;b&gt;[Bob hasn&#39;t right swiped Alice]&lt;/b&gt;&lt;/span&gt;" style="text;html=1;strokeColor=none;fillColor=none;align=center;verticalAlign=middle;whiteSpace=wrap;rounded=0;labelBackgroundColor=none;fontSize=14;" vertex="1" parent="1">
          <mxGeometry x="20" y="330" width="210" height="30" as="geometry" />
        </mxCell>
      </root>
    </mxGraphModel>
  </diagram>
</mxfile>
